<svg width="50" height="50" viewBox="0 0 50 50" fill="none" xmlns="http://www.w3.org/2000/svg">
<g clip-path="url(#clip0_230_15126)">
<path d="M24.9994 4.16602C13.4993 4.16602 4.16602 13.4993 4.16602 24.9994C4.16602 36.4994 13.4993 45.8327 24.9994 45.8327C36.4994 45.8327 45.8327 36.4994 45.8327 24.9994C45.8327 13.4993 36.4994 4.16602 24.9994 4.16602ZM24.9994 10.416C28.4577 10.416 31.2494 13.2077 31.2494 16.666C31.2494 20.1244 28.4577 22.916 24.9994 22.916C21.541 22.916 18.7493 20.1244 18.7493 16.666C18.7493 13.2077 21.541 10.416 24.9994 10.416ZM24.9994 39.9994C19.791 39.9994 15.1868 37.3327 12.4993 33.291C12.5618 29.1452 20.8327 26.8743 24.9994 26.8743C29.1452 26.8743 37.4369 29.1452 37.4994 33.291C34.8119 37.3327 30.2077 39.9994 24.9994 39.9994Z" fill="#43607C"/>
</g>
<defs>
<clipPath id="clip0_230_15126">
<rect width="50" height="50" fill="white"/>
</clipPath>
</defs>
</svg>
