<svg width="51" height="50" viewBox="0 0 51 50" fill="none" xmlns="http://www.w3.org/2000/svg">
<g clip-path="url(#clip0_230_15789)">
<path d="M40.0833 14.5827V20.8118C40.0833 20.8118 35.9375 20.8327 35.9167 20.8118V14.5827H29.6667C29.6667 14.5827 29.6875 10.4368 29.6667 10.416H35.9167V4.16602H40.0833V10.416H46.3333V14.5827H40.0833ZM33.8333 22.916V16.666H27.5833V10.416H10.9167C8.625 10.416 6.75 12.291 6.75 14.5827V39.5827C6.75 41.8743 8.625 43.7493 10.9167 43.7493H35.9167C38.2083 43.7493 40.0833 41.8743 40.0833 39.5827V22.916H33.8333ZM10.9167 39.5827L17.1667 31.2493L21.3333 37.4993L27.5833 29.166L35.9167 39.5827H10.9167Z" fill="#A63A50"/>
</g>
<defs>
<clipPath id="clip0_230_15789">
<rect width="50" height="50" fill="white" transform="translate(0.5)"/>
</clipPath>
</defs>
</svg>
