<svg width="50" height="50" viewBox="0 0 50 50" fill="none" xmlns="http://www.w3.org/2000/svg">
<rect width="50" height="50" rx="25" fill="#FFF2F2"/>
<g clip-path="url(#clip0_230_15067)">
<path d="M23.4464 39.581L23.4435 39.5784C18.2532 34.8719 14.1077 31.1076 11.2356 27.5963C8.38649 24.1129 7 21.123 7 18C7 12.9446 10.9446 9 16 9C18.8744 9 21.6645 10.3479 23.4773 12.4767L25 14.2648L26.5227 12.4767C28.3355 10.3479 31.1256 9 34 9C39.0554 9 43 12.9446 43 18C43 21.1231 41.6135 24.1131 38.764 27.5993C35.8918 31.1131 31.7468 34.8818 26.5571 39.5979C26.5564 39.5985 26.5557 39.5992 26.5549 39.5999L25.0051 41L23.4464 39.581Z" stroke="#A63A50" stroke-width="4"/>
</g>
<g clip-path="url(#clip1_230_15067)">
<path d="M23.4464 39.581L23.4435 39.5784C18.2532 34.8719 14.1077 31.1076 11.2356 27.5963C8.38649 24.1129 7 21.123 7 18C7 12.9446 10.9446 9 16 9C18.8744 9 21.6645 10.3479 23.4773 12.4767L25 14.2648L26.5227 12.4767C28.3355 10.3479 31.1256 9 34 9C39.0554 9 43 12.9446 43 18C43 21.1231 41.6135 24.1131 38.764 27.5993C35.8918 31.1131 31.7468 34.8818 26.5571 39.5979C26.5564 39.5985 26.5557 39.5992 26.5549 39.5999L25.0051 41L23.4464 39.581Z" stroke="#A63A50" stroke-width="4"/>
</g>
<defs>
<clipPath id="clip0_230_15067">
<rect width="48" height="48" fill="white" transform="translate(1 1)"/>
</clipPath>
<clipPath id="clip1_230_15067">
<rect width="48" height="48" fill="white" transform="translate(1 1)"/>
</clipPath>
</defs>
</svg>
