<svg width="50" height="50" viewBox="0 0 50 50" fill="none" xmlns="http://www.w3.org/2000/svg">
<g clip-path="url(#clip0_250_12706)">
<path d="M24.9993 4.16602C16.9368 4.16602 10.416 10.6868 10.416 18.7493C10.416 22.3743 11.4577 25.7702 13.3535 28.8327C15.3327 32.041 17.9368 34.791 19.9368 37.9993C20.916 39.5618 21.6243 41.0202 22.3743 42.7077C22.916 43.8535 23.3535 45.8327 24.9993 45.8327C26.6452 45.8327 27.0827 43.8535 27.6035 42.7077C28.3743 41.0202 29.0618 39.5618 30.041 37.9993C32.041 34.8118 34.6452 32.0618 36.6243 28.8327C38.541 25.7702 39.5827 22.3743 39.5827 18.7493C39.5827 10.6868 33.0618 4.16602 24.9993 4.16602ZM24.9993 24.4785C22.1243 24.4785 19.791 22.1452 19.791 19.2702C19.791 16.3952 22.1243 14.0618 24.9993 14.0618C27.8743 14.0618 30.2077 16.3952 30.2077 19.2702C30.2077 22.1452 27.8743 24.4785 24.9993 24.4785Z" fill="#A63A50"/>
</g>
<defs>
<clipPath id="clip0_250_12706">
<rect width="50" height="50" fill="white"/>
</clipPath>
</defs>
</svg>
